<svg height="480pt" viewBox="0 0 480 480" width="480pt" xmlns="http://www.w3.org/2000/svg"><path d="m40 8.320312h400c17.671875 0 32 14.328126 32 32v256c0 17.671876-14.328125 32-32 32h-400c-17.671875 0-32-14.328124-32-32v-256c0-17.671874 14.328125-32 32-32zm0 0" fill="#fcbc04"/><path d="m440 8h-176c114.875 0 208 93.125 208 208v-176c0-17.671875-14.328125-32-32-32zm0 0" fill="#f9e109"/><path d="m48 40.320312h384c4.417969 0 8 3.582032 8 8v208c0 4.417969-3.582031 8-8 8h-384c-4.417969 0-8-3.582031-8-8v-208c0-4.417968 3.582031-8 8-8zm0 0" fill="#4891d3"/><path d="m432 40h-384c-4.417969 0-8 3.582031-8 8v8h376c4.417969 0 8 3.582031 8 8v200h8c4.417969 0 8-3.582031 8-8v-208c0-4.417969-3.582031-8-8-8zm0 0" fill="#2d72bc"/><path d="m104 304h-32c-4.417969 0-8-3.582031-8-8s3.582031-8 8-8h32c4.417969 0 8 3.582031 8 8s-3.582031 8-8 8zm0 0" fill="#a1d51c"/><path d="m144 296.320312c0 4.417969-3.582031 8-8 8s-8-3.582031-8-8c0-4.417968 3.582031-8 8-8s8 3.582032 8 8zm0 0" fill="#a1d51c"/><path d="m112 376.320312h256c8.835938 0 16 7.164063 16 16 0 8.835938-7.164062 16-16 16h-256c-8.835938 0-16-7.164062-16-16 0-8.835937 7.164062-16 16-16zm0 0" fill="#fcbc04"/><path d="m112 392h256c5.683594.035156 10.917969 3.078125 13.761719 8 1.4375-2.421875 2.210937-5.183594 2.238281-8 0-8.835938-7.164062-16-16-16h-256c-8.835938 0-16 7.164062-16 16 .027344 2.816406.800781 5.578125 2.238281 8 2.84375-4.921875 8.078125-7.964844 13.761719-8zm0 0" fill="#f9e109"/><path d="m328 376.320312h-176l24-48h128zm0 0" fill="#e59730"/><path d="m48 440h208c8.835938 0 16 7.164062 16 16v16h-240v-16c0-8.835938 7.164062-16 16-16zm0 0" fill="#fcbc04"/><path d="m32 456.320312h240v16h-240zm0 0" fill="#e59730"/><path d="m400 424h48c8.835938 0 16 7.164062 16 16v32h-80v-32c0-8.835938 7.164062-16 16-16zm0 0" fill="#fcbc04"/><path d="m432 424v16c0 4.417969-3.582031 8-8 8s-8-3.582031-8-8v-16" fill="#e59730"/><path d="m165.921875 40-125.921875 126.238281v89.761719c0 4.417969 3.582031 8 8 8h18.398438l224-224zm0 0" fill="#57b7eb"/><path d="m274.398438 56.320312 16-16h-124.476563l-16 16zm0 0" fill="#4891d3"/><path d="m368 232h-48c-4.417969 0-8-3.582031-8-8s3.582031-8 8-8h48c13.253906 0 24-10.746094 24-24v-32c0-4.417969 3.582031-8 8-8s8 3.582031 8 8v32c0 22.089844-17.910156 40-40 40zm0 0" fill="#57b7eb"/><path d="m400 440h16v-16h-16c-8.835938 0-16 7.164062-16 16v16c0-8.835938 7.164062-16 16-16zm0 0" fill="#f9e109"/><path d="m448 424h-16v16h16c8.835938 0 16 7.164062 16 16v-16c0-8.835938-7.164062-16-16-16zm0 0" fill="#f9e109"/><path d="m416 424.320312h16v16h-16zm0 0" fill="#fcbc04"/><g fill="#39519d"><path d="m448 256v-208c0-8.835938-7.164062-16-16-16h-384c-8.835938 0-16 7.164062-16 16v208c0 8.835938 7.164062 16 16 16h384c8.835938 0 16-7.164062 16-16zm-400-86.480469 91.601562-91.597656c3.101563-3.121094 3.101563-8.160156 0-11.28125-1.503906-1.515625-3.546874-2.367187-5.679687-2.367187-2.136719 0-4.179687.851562-5.683594 2.367187l-80 80v-98.640625h383.761719v208h-346.320312l178.320312-178.078125c2.71875-3.175781 2.535156-7.90625-.417969-10.863281-2.957031-2.953125-7.6875-3.136719-10.863281-.417969l-189.679688 189.359375h-15.039062zm0 0"/><path d="m72 288c-4.417969 0-8 3.582031-8 8s3.582031 8 8 8h32c4.417969 0 8-3.582031 8-8s-3.582031-8-8-8zm0 0"/><path d="m144 296.320312c0 4.417969-3.582031 8-8 8s-8-3.582031-8-8c0-4.417968 3.582031-8 8-8s8 3.582032 8 8zm0 0"/><path d="m256 432h-208c-13.253906 0-24 10.746094-24 24v16c0 4.417969 3.582031 8 8 8s8-3.582031 8-8v-16c0-4.417969 3.582031-8 8-8h208c4.417969 0 8 3.582031 8 8v16c0 4.417969 3.582031 8 8 8s8-3.582031 8-8v-16c0-13.253906-10.746094-24-24-24zm0 0"/><path d="m448 416h-48c-13.253906 0-24 10.746094-24 24v32c0 4.417969 3.582031 8 8 8s8-3.582031 8-8v-32c0-4.417969 3.582031-8 8-8h16v8c0 4.417969 3.582031 8 8 8s8-3.582031 8-8v-8h16c4.417969 0 8 3.582031 8 8v32c0 4.417969 3.582031 8 8 8s8-3.582031 8-8v-32c0-13.253906-10.746094-24-24-24zm0 0"/><path d="m320 232h48c22.089844 0 40-17.910156 40-40v-32c0-4.417969-3.582031-8-8-8s-8 3.582031-8 8v32c0 13.253906-10.746094 24-24 24h-48c-4.417969 0-8 3.582031-8 8s3.582031 8 8 8zm0 0"/><path d="m472 160c4.417969 0 8-3.582031 8-8v-112c0-22.089844-17.910156-40-40-40h-400c-22.089844 0-40 17.910156-40 40v256c0 22.089844 17.910156 40 40 40h123.039062l-16 32h-35.039062c-13.253906 0-24 10.746094-24 24s10.746094 24 24 24h256c13.253906 0 24-10.746094 24-24s-10.746094-24-24-24h-35.039062l-16-32h123.039062c22.089844 0 40-17.910156 40-40v-80c0-4.417969-3.582031-8-8-8s-8 3.582031-8 8v80c0 13.253906-10.746094 24-24 24h-400c-13.253906 0-24-10.746094-24-24v-256c0-13.253906 10.746094-24 24-24h400c13.253906 0 24 10.746094 24 24v112c0 4.417969 3.582031 8 8 8zm-96 232c0 4.417969-3.582031 8-8 8h-256c-4.417969 0-8-3.582031-8-8s3.582031-8 8-8h256c4.417969 0 8 3.582031 8 8zm-76.960938-56 16 32h-150.078124l16-32zm0 0"/></g></svg>